<?xml version="1.0" encoding="UTF-8" standalone="no"?>
<!-- Created with Inkscape (http://www.inkscape.org/) -->

<svg
   width="16"
   height="16"
   viewBox="0 0 16 16"
   version="1.1"
   id="SVGRoot"
   xmlns="http://www.w3.org/2000/svg"
   xmlns:svg="http://www.w3.org/2000/svg">
  <defs
     id="defs429" />
  <g
     id="layer1">
    <path
       style="color:#000000;fill:#000000;fill-rule:evenodd;stroke-linejoin:round;-inkscape-stroke:none;paint-order:stroke markers fill"
       d="M 3,2 C 1.9092983,2 1,2.9092983 1,4 v 10 c 0,1.090702 0.9092983,2 2,2 h 7 a 1.0001,1.0001 0 0 0 0.707031,-0.292969 l 4,-4 A 1.0001,1.0001 0 0 0 15,11 V 4 C 15,2.9092983 14.090702,2 13,2 h -1 v 2 h 1 v 6.585938 L 9.5859375,14 H 3 V 4 H 4 V 2 Z"
       id="rect793" />
    <path
       style="fill:#000000;stroke:none;stroke-width:1px;stroke-linecap:butt;stroke-linejoin:miter;stroke-opacity:1"
       d="M 8,12 7,11 V 9 h 2 v 2 z"
       id="path4580" />
    <path
       id="rect6760"
       style="fill-rule:evenodd;stroke-width:2.19089;stroke-linejoin:round;paint-order:stroke markers fill"
       d="m 5,0 h 6 V 2 H 5 Z" />
    <path
       id="rect6760-7"
       style="fill-rule:evenodd;stroke-width:2.52982;stroke-linejoin:round;paint-order:stroke markers fill"
       d="m 4,6 h 8 V 8 H 4 Z" />
    <path
       id="rect6760-6"
       style="fill-rule:evenodd;stroke-width:2.82841;stroke-linejoin:round;paint-order:stroke markers fill"
       d="m 6,1 h 4 V 7 H 6 Z" />
  </g>
</svg>
