<?xml version="1.0" encoding="UTF-8" standalone="no"?>
<!-- Created with Inkscape (http://www.inkscape.org/) -->

<svg
   width="16"
   height="16"
   viewBox="0 0 16 16"
   version="1.1"
   id="SVGRoot"
   sodipodi:docname="io.github.fabrialberio.pinapp-symbolic.svg"
   inkscape:version="1.2.2 (b0a8486541, 2022-12-01)"
   xmlns:inkscape="http://www.inkscape.org/namespaces/inkscape"
   xmlns:sodipodi="http://sodipodi.sourceforge.net/DTD/sodipodi-0.dtd"
   xmlns="http://www.w3.org/2000/svg"
   xmlns:svg="http://www.w3.org/2000/svg">
  <sodipodi:namedview
     id="namedview10"
     pagecolor="#505050"
     bordercolor="#eeeeee"
     borderopacity="1"
     inkscape:showpageshadow="0"
     inkscape:pageopacity="0"
     inkscape:pagecheckerboard="0"
     inkscape:deskcolor="#505050"
     showgrid="false"
     inkscape:zoom="14.75"
     inkscape:cx="2.2372881"
     inkscape:cy="-2.1694915"
     inkscape:window-width="2560"
     inkscape:window-height="1371"
     inkscape:window-x="0"
     inkscape:window-y="0"
     inkscape:window-maximized="1"
     inkscape:current-layer="layer1" />
  <defs
     id="defs429" />
  <g
     id="layer1">
    <path
       style="color:#000000;fill:#000000;fill-rule:evenodd;stroke-linejoin:round;-inkscape-stroke:none;paint-order:stroke markers fill"
       d="M 3,2 C 1.9092983,2 1,2.9092983 1,4 v 10 c 0,1.090702 0.9092983,2 2,2 h 7 a 1.0001,1.0001 0 0 0 0.707031,-0.292969 l 4,-4 A 1.0001,1.0001 0 0 0 15,11 V 4 C 15,2.9092983 14.090702,2 13,2 h -1 v 2 h 1 v 6.585938 L 9.5859375,14 H 3 V 4 H 4 V 2 Z"
       id="rect793" />
    <path
       style="fill:#000000;stroke:none;stroke-width:1px;stroke-linecap:butt;stroke-linejoin:miter;stroke-opacity:1"
       d="M 8,12 7,11 V 9 h 2 v 2 z"
       id="path4580" />
    <path
       id="rect6760-6"
       style="fill-rule:evenodd;stroke-width:2.82841;stroke-linejoin:round;paint-order:stroke markers fill"
       d="m 6,1 h 4 V 7 H 6 Z" />
    <rect
       style="fill:#000000;fill-rule:evenodd;stroke-width:2;stroke-linejoin:round;stroke-miterlimit:2.6;paint-order:markers stroke fill"
       id="rect495"
       width="6"
       height="2"
       x="5"
       y="0"
       rx="1"
       ry="1" />
  </g>
  <path
     style="fill:#000000;fill-rule:evenodd;stroke-width:2;stroke-linejoin:round;stroke-miterlimit:2.6;paint-order:markers stroke fill"
     id="path345"
     sodipodi:type="arc"
     sodipodi:cx="-8"
     sodipodi:cy="-8"
     sodipodi:rx="4"
     sodipodi:ry="4"
     sodipodi:start="6.2343325"
     sodipodi:end="3.1415927"
     sodipodi:open="true"
     sodipodi:arc-type="arc"
     d="m -4.0047722,-8.1953335 a 4,4 0 0 1 -1.8834877,3.5924725 4,4 0 0 1 -4.0550672,0.09907 A 4,4 0 0 1 -12,-8"
     transform="scale(-1)" />
</svg>
