<?xml version="1.0" encoding="UTF-8" standalone="no"?>
<!-- Created with Inkscape (http://www.inkscape.org/) -->

<svg
   width="16.0px"
   height="16.0px"
   viewBox="0 0 16.0 16.0"
   version="1.1"
   id="SVGRoot"
   inkscape:version="1.2.2 (b0a8486541, 2022-12-01)"
   sodipodi:docname="pin-symbolic.svg"
   xmlns:inkscape="http://www.inkscape.org/namespaces/inkscape"
   xmlns:sodipodi="http://sodipodi.sourceforge.net/DTD/sodipodi-0.dtd"
   xmlns="http://www.w3.org/2000/svg"
   xmlns:svg="http://www.w3.org/2000/svg">
  <sodipodi:namedview
     id="namedview7"
     pagecolor="#ffffff"
     bordercolor="#000000"
     borderopacity="0"
     inkscape:showpageshadow="0"
     inkscape:pageopacity="0"
     inkscape:pagecheckerboard="0"
     inkscape:deskcolor="#242424"
     inkscape:document-units="px"
     showgrid="true"
     inkscape:zoom="26.91226"
     inkscape:cx="6.5583494"
     inkscape:cy="8.0632397"
     inkscape:window-width="2560"
     inkscape:window-height="1371"
     inkscape:window-x="0"
     inkscape:window-y="0"
     inkscape:window-maximized="1"
     inkscape:current-layer="layer1">
    <inkscape:grid
       type="xygrid"
       id="grid254" />
  </sodipodi:namedview>
  <defs
     id="defs2" />
  <g
     inkscape:label="Livello 1"
     inkscape:groupmode="layer"
     id="layer1"
     transform="translate(5.0889808,20.275961)">
    <path
       d="m -0.0889808,-20.275961 c -0.550781,0 -1,0.449219 -1,1 0,0.550781 0.449219,1 1,1 h 0.140625 l 0.515625,3.59375 c -1.632812,0.867188 -2.652344,2.558594 -2.65625,4.40625 h 10 c -0.00391,-1.847656 -1.023438,-3.539062 -2.65625,-4.40625 l 0.511719,-3.59375 h 0.144531 c 0.550781,0 1,-0.449219 1,-1 0,-0.265625 -0.105469,-0.519531 -0.292969,-0.707031 -0.1875,-0.1875 -0.441406,-0.292969 -0.707031,-0.292969 z m 2,11 v 4 l 1,1 1,-1 v -4 z m 0,0"
       fill="#2e3436"
       id="path311"
       style="fill:#222222;fill-opacity:1" />
  </g>
</svg>
